:FULLY-SPECIFIED
:FORCE-ALL-JOINTS-BE-3DOF
:DEGREES
2039
root -3.24799 15.16 22.2835 178.427 -9.5466 173.131
lfemur -17.3679 10.0391 -23.2255
ltibia 55.9197 -0 0
lfoot -25.0544 17.2211 -0.0302524
ltoes -42.4105 0 0
rfemur -58.8424 -15.3634 18.9679
rtibia 64.6723 -0 0
rfoot -1.29638 4.54422 -0.0489243
rtoes -10.8435 0 0
lowerback 15.4912 -0.684817 -8.68038
upperback -0.495591 -2.41799 1.8689
thorax -8.83895 -0.750876 7.54241
lowerneck -2.87749 -3.6074 -6.0875
upperneck 6.98143 -4.73317 1.20618
head 2.92822 -2.52716 1.2624
lclavicle -2.20837e-014 3.61788e-014 0
lhumerus -3.25102 -36.1528 86.102
lradius 66.5094 -0 0
lwrist -4.70664 0 0
lhand -26.1766 37.0742 -0.21833
lfingers 7.12502 -0 0
lthumb 0.376523 66.9701 -0.184381
rclavicle -2.20837e-014 3.61788e-014 0
rhumerus 1.22646 16.4824 -68.5468
rradius 120.035 -0 0
rwrist -48.72 0 0
rhand 41.8968 -26.9943 0.045535
rfingers 7.12502 -0 0
rthumb 63.8654 -35.1696 0.166554
2040
root -3.23917 15.1206 22.1077 178.344 -10.5955 173.064
lfemur -16.6479 9.42798 -23.1587
ltibia 55.8681 -0 0
lfoot -25.4955 17.5074 -0.0632919
ltoes -42.6544 0 0
rfemur -59.153 -15.6216 18.6931
rtibia 63.8041 -0 0
rfoot -0.799358 4.65647 -0.100146
rtoes -10.0882 0 0
lowerback 15.4503 -0.529875 -8.88499
upperback -0.460431 -2.25818 1.77116
thorax -8.80566 -0.672719 7.52023
lowerneck -2.78834 -4.05447 -6.4349
upperneck 7.06044 -5.35321 1.5628
head 2.98538 -2.83177 1.39706
lclavicle -2.20837e-014 3.61788e-014 0
lhumerus -6.51055 -36.306 87.8246
lradius 68.6319 -0 0
lwrist -2.13608 0 0
lhand -27.5343 37.9238 -0.477802
lfingers 7.12502 -0 0
lthumb -0.931764 67.7188 -0.402696
rclavicle -2.20837e-014 3.61788e-014 0
rhumerus 3.77893 15.8568 -67.3489
rradius 116.904 -0 0
rwrist -46.3223 0 0
rhand 40.7022 -27.1173 0.156479
rfingers 7.12502 -0 0
rthumb 62.7681 -35.614 0.486536
2041
root -3.23034 15.0812 21.9318 178.27 -11.6591 173.001
lfemur -15.9617 8.76447 -23.0624
ltibia 55.8685 -0 0
lfoot -25.961 17.8869 -0.0969992
ltoes -42.9081 0 0
rfemur -59.3138 -15.8838 18.3143
rtibia 62.9589 -0 0
rfoot -0.247375 4.64699 -0.151771
rtoes -9.16988 0 0
lowerback 15.3956 -0.359824 -9.09084
upperback -0.417002 -2.07697 1.66584
thorax -8.76072 -0.585333 7.4852
lowerneck -2.69697 -4.52489 -6.80312
upperneck 7.13263 -6.00601 1.94225
head 3.04845 -3.15196 1.53751
lclavicle -2.20837e-014 3.61788e-014 0
lhumerus -10.0974 -36.1443 89.6494
lradius 70.8583 -0 0
lwrist 0.759808 0 0
lhand -29.1901 38.985 -0.757359
lfingers 7.12502 -0 0
lthumb -2.52598 68.6598 -0.637039
rclavicle -2.20837e-014 3.61788e-014 0
rhumerus 6.33103 15.1815 -66.1096
rradius 113.165 -0 0
rwrist -43.6176 0 0
rhand 38.993 -27.3657 0.321144
rfingers 7.12502 -0 0
rthumb 61.2034 -36.3807 0.930206
2042
root -3.22152 15.0418 21.7559 178.206 -12.731 172.942
lfemur -15.3074 8.05498 -22.9404
ltibia 55.914 -0 0
lfoot -26.4434 18.3494 -0.129384
ltoes -43.1698 0 0
rfemur -59.3381 -16.1466 17.8426
rtibia 62.1394 -0 0
rfoot 0.349707 4.52688 -0.201742
rtoes -8.10861 0 0
lowerback 15.3282 -0.176896 -9.29653
upperback -0.366646 -1.877 1.55406
thorax -8.70555 -0.489885 7.4383
lowerneck -2.60314 -5.01431 -7.18869
upperneck 7.19673 -6.68572 2.34128
head 3.11622 -3.48491 1.68266
lclavicle -2.20837e-014 3.61788e-014 0
lhumerus -13.9318 -35.6737 91.5166
lradius 73.1706 -0 0
lwrist 3.93883 0 0
lhand -31.1035 40.233 -1.03538
lfingers 7.12502 -0 0
lthumb -4.3668 69.7698 -0.869023
rclavicle -2.20837e-014 3.61788e-014 0
rhumerus 8.87116 14.4555 -64.8437
rradius 108.886 -0 0
rwrist -40.6437 0 0
rhand 36.823 -27.7317 0.5253
rfingers 7.12502 -0 0
rthumb 59.2149 -37.4476 1.46217
2043
root -3.21269 15.0024 21.58 178.153 -13.8049 172.888
lfemur -14.6827 7.30608 -22.7963
ltibia 55.9982 -0 0
lfoot -26.9353 18.8845 -0.15866
ltoes -43.4379 0 0
rfemur -59.2392 -16.4061 17.2897
rtibia 61.3485 -0 0
rfoot 0.982001 4.3073 -0.247984
rtoes -6.92443 0 0
lowerback 15.2493 0.0166904 -9.50065
upperback -0.310693 -1.6609 1.43696
thorax -8.64159 -0.38754 7.38051
lowerneck -2.50673 -5.51838 -7.58815
upperneck 7.25155 -7.38645 2.7567
head 3.18748 -3.8278 1.83144
lclavicle -2.20837e-014 3.61788e-014 0
lhumerus -17.935 -34.9072 93.3661
lradius 75.5508 -0 0
lwrist 7.35879 0 0
lhand -33.2335 41.6417 -1.29108
lfingers 7.12502 -0 0
lthumb -6.41431 71.0245 -1.08099
rclavicle -2.20837e-014 3.61788e-014 0
rhumerus 11.3882 13.6797 -63.5659
rradius 104.14 -0 0
rwrist -37.4386 0 0
rhand 34.2459 -28.2075 0.753118
rfingers 7.12502 -0 0
rthumb 56.8458 -38.7923 2.04355
2044
root -3.20387 14.9631 21.4042 178.111 -14.8742 172.838
lfemur -14.0853 6.52439 -22.6334
ltibia 56.1143 -0 0
lfoot -27.4291 19.4819 -0.183311
ltoes -43.7107 0 0
rfemur -59.031 -16.6582 16.6671
rtibia 60.5888 -0 0
rfoot 1.63958 3.99946 -0.288538
rtoes -5.63741 0 0
lowerback 15.16 0.218727 -9.70182
upperback -0.250459 -1.43133 1.31564
thorax -8.57027 -0.27946 7.31281
lowerneck -2.4077 -6.03277 -7.99798
upperneck 7.29607 -8.1023 3.18536
head 3.26107 -4.17777 1.98278
lclavicle -2.20837e-014 3.61788e-014 0
lhumerus -22.0333 -33.8647 95.142
lradius 77.9811 -0 0
lwrist 10.9775 0 0
lhand -35.5377 43.1833 -1.50572
lfingers 7.12502 -0 0
lthumb -8.62783 72.3985 -1.25709
rclavicle -2.20837e-014 3.61788e-014 0
rhumerus 13.8717 12.8564 -62.29
rradius 98.9957 -0 0
rwrist -34.0404 0 0
rhand 31.3152 -28.7843 0.988073
rfingers 7.12502 -0 0
rthumb 54.1398 -40.3906 2.63402
2045
root -3.19504 14.9237 21.2283 178.08 -15.9325 172.792
lfemur -13.5126 5.71666 -22.455
ltibia 56.2557 -0 0
lfoot -27.9173 20.1314 -0.202139
ltoes -43.9865 0 0
rfemur -58.7274 -16.8988 15.9869
rtibia 59.8631 -0 0
rfoot 2.31248 3.61463 -0.321669
rtoes -4.2676 0 0
lowerback 15.0614 0.427022 -9.8986
upperback -0.187243 -1.19094 1.1912
thorax -8.49303 -0.166812 7.23615
lowerneck -2.30616 -6.55319 -8.41467
upperneck 7.32937 -8.82733 3.62413
head 3.33584 -4.53198 2.13566
lclavicle -2.20837e-014 3.61788e-014 0
lhumerus -26.1615 -32.5731 96.797
lradius 80.4434 -0 0
lwrist 14.7527 0 0
lhand -37.9729 44.8287 -1.66372
lfingers 7.12502 -0 0
lthumb -10.9659 73.8651 -1.38425
rclavicle -2.20837e-014 3.61788e-014 0
rhumerus 16.3118 11.9894 -61.029
rradius 93.5243 -0 0
rwrist -30.4869 0 0
rhand 28.0849 -29.4521 1.21381
rfingers 7.12502 -0 0
rthumb 51.1425 -42.215 3.19387
2046
root -3.18621 14.8843 21.0524 178.062 -16.9736 172.749
lfemur -12.9623 4.88968 -22.264
ltibia 56.4159 -0 0
lfoot -28.3924 20.8226 -0.2143
ltoes -44.2637 0 0
rfemur -58.3425 -17.1238 15.2612
rtibia 59.1743 -0 0
rfoot 2.99066 3.16411 -0.345962
rtoes -2.83507 0 0
lowerback 14.9548 0.639395 -10.0896
upperback -0.122324 -0.942378 1.06473
thorax -8.41127 -0.0507627 7.1515
lowerneck -2.20231 -7.07531 -8.83468
upperneck 7.35075 -9.55559 4.0699
head 3.41067 -4.88757 2.28906
lclavicle -2.20837e-014 3.61788e-014 0
lhumerus -30.2649 -31.0653 98.2943
lradius 82.9199 -0 0
lwrist 18.6422 0 0
lhand -40.4949 46.5474 -1.75363
lfingers 7.12502 -0 0
lthumb -13.3863 75.3967 -1.45293
rclavicle -2.20837e-014 3.61788e-014 0
rhumerus 18.6996 11.0841 -59.7953
rradius 87.796 -0 0
rwrist -26.8162 0 0
rhand 24.6092 -30.1993 1.41498
rfingers 7.12502 -0 0
rthumb 47.9022 -44.2342 3.68601
2047
root -3.17739 14.8449 20.8766 178.056 -17.9909 172.711
lfemur -12.4316 4.05031 -22.0636
ltibia 56.5881 -0 0
lfoot -28.8465 21.5451 -0.21933
ltoes -44.5406 0 0
rfemur -57.891 -17.3297 14.5025
rtibia 58.5252 -0 0
rfoot 3.66406 2.65923 -0.360395
rtoes -1.35988 0 0
lowerback 14.8412 0.853685 -10.2733
upperback -0.0569622 -0.688319 0.937298
thorax -8.32643 0.0675138 7.05981
lowerneck -2.09651 -7.59487 -9.2544
upperneck 7.35962 -10.2811 4.51957
head 3.48446 -5.24168 2.44198
lclavicle -2.20837e-014 3.61788e-014 0
lhumerus -34.2998 -29.379 99.6089
lradius 85.3926 -0 0
lwrist 22.6039 0 0
lhand -43.0588 48.3078 -1.76873
lfingers 7.12502 -0 0
lthumb -15.8463 76.9647 -1.45773
rclavicle -2.20837e-014 3.61788e-014 0
rhumerus 21.0269 10.1471 -58.6001
rradius 81.8813 -0 0
rwrist -23.0662 0 0
rhand 20.9429 -31.0124 1.57809
rfingers 7.12502 -0 0
rthumb 44.4698 -46.4129 4.07793
2048
root -3.16856 14.8055 20.7007 178.064 -18.9781 172.676
lfemur -11.9176 3.20545 -21.8566
ltibia 56.7657 -0 0
lfoot -29.2722 22.2886 -0.217153
ltoes -44.8154 0 0
rfemur -57.3876 -17.5131 13.7236
rtibia 57.9184 -0 0
rfoot 4.32256 2.11135 -0.36439
rtoes 0.137915 -0 0
lowerback 14.722 1.06774 -10.4484
upperback 0.0076054 -0.431436 0.809953
thorax -8.23991 0.186839 6.96202
lowerneck -1.98924 -8.1076 -9.67023
upperneck 7.35559 -10.9979 4.96999
head 3.55615 -5.59142 2.59344
lclavicle -2.20837e-014 3.61788e-014 0
lhumerus -38.2324 -27.5551 100.727
lradius 87.8435 -0 0
lwrist 26.5955 0 0
lhand -45.6194 50.0782 -1.70755
lfingers 7.12502 -0 0
lthumb -18.3031 78.5405 -1.39775
rclavicle -2.20837e-014 3.61788e-014 0
rhumerus 23.2864 9.18595 -57.4538
rradius 75.8504 -0 0
rwrist -19.2749 0 0
rhand 17.1412 -31.8762 1.69214
rfingers 7.12502 -0 0
rthumb 40.8991 -48.7113 4.34351
2049
root -3.15974 14.7661 20.5248 178.086 -19.9288 172.644
lfemur -11.4176 2.36206 -21.6458
ltibia 56.9421 -0 0
lfoot -29.6618 23.0427 -0.208073
ltoes -45.0866 0 0
rfemur -56.8473 -17.6713 12.9376
rtibia 57.3568 -0 0
rfoot 4.95603 1.53181 -0.357849
rtoes 1.63825 -0 0
lowerback 14.5984 1.27944 -10.6132
upperback 0.0701618 -0.174412 0.683728
thorax -8.15312 0.306027 6.85906
lowerneck -1.8811 -8.60926 -10.0785
upperneck 7.33844 -11.7 5.41802
head 3.62469 -5.93393 2.74248
lclavicle -2.20837e-014 3.61788e-014 0
lhumerus -42.0371 -25.6365 101.646
lradius 90.2549 -0 0
lwrist 30.5748 0 0
lhand -48.1313 51.8268 -1.57401
lfingers 7.12502 -0 0
lthumb -20.7138 80.0953 -1.27671
rclavicle -2.20837e-014 3.61788e-014 0
rhumerus 25.4714 8.20957 -56.3659
rradius 69.7738 -0 0
rwrist -15.4802 0 0
rhand 13.2595 -32.7743 1.74931
rfingers 7.12502 -0 0
rthumb 37.2469 -51.0866 4.46452
